<?xml version="1.0" encoding="UTF-8" standalone="no"?>
<!DOCTYPE svg PUBLIC "-//W3C//DTD SVG 1.1//EN" "http://www.w3.org/Graphics/SVG/1.1/DTD/svg11.dtd">
<svg xmlns="http://www.w3.org/2000/svg" version="1.1" viewBox="0.00 0.00 230.00 230.00">
<g stroke-width="2.00" fill="none" stroke-linecap="butt">
<path stroke="#7e96ff" vector-effect="non-scaling-stroke" d="
  M 230.00 45.81
  Q 228.06 44.31 226.18 45.17
  Q 220.26 47.87 214.05 52.34
  C 208.81 56.11 206.65 62.28 199.74 63.22
  Q 199.21 63.30 199.09 63.83
  L 198.41 66.96
  Q 198.36 67.21 198.10 67.24
  Q 197.96 67.25 197.78 67.24
  Q 197.29 67.20 197.28 67.70
  L 197.04 81.00"
/>
<path stroke="#5e75d6" vector-effect="non-scaling-stroke" d="
  M 197.04 81.00
  Q 196.98 73.95 196.99 66.92
  C 197.00 56.94 193.59 54.60 183.63 54.53
  Q 132.97 54.20 82.31 54.12
  Q 73.61 54.11 68.00 54.94"
/>
<path stroke="#bbc7ff" vector-effect="non-scaling-stroke" d="
  M 68.00 54.94
  C 57.36 55.35 55.41 57.29 55.31 67.77
  Q 55.19 80.85 54.93 94.01
  Q 54.92 94.53 54.41 94.53
  Q 46.44 94.41 38.45 94.60
  C 32.62 94.73 29.68 97.60 29.74 103.50
  Q 29.87 117.82 29.76 169.50
  Q 29.75 174.13 32.11 177.07"
/>
<path stroke="#5e75d6" vector-effect="non-scaling-stroke" d="
  M 32.11 177.07
  C 35.43 181.09 48.06 179.99 53.00 180.04"
/>
<path stroke="#7e96ff" vector-effect="non-scaling-stroke" d="
  M 53.00 180.04
  L 49.03 180.42
  Q 48.50 180.47 48.77 180.94
  Q 49.21 181.72 48.32 182.08
  Q 47.78 182.29 47.57 182.82
  Q 46.77 184.87 47.98 186.64
  A 2.41 2.40 50.8 0 1 47.67 189.73
  C 45.13 192.17 44.57 195.78 42.11 198.03
  Q 39.52 200.38 35.77 202.77
  C 32.00 205.17 28.68 208.63 25.69 212.45
  Q 23.34 215.44 20.04 217.23
  C 14.90 219.99 13.28 224.72 16.44 230.00"
/>
<path stroke="#8ba1ff" vector-effect="non-scaling-stroke" d="
  M 230.00 154.56
  L 229.23 156.83
  Q 229.08 157.26 228.64 157.36
  Q 225.51 158.10 223.25 161.26
  Q 220.72 164.79 216.06 166.25
  C 212.77 167.29 211.33 170.40 207.93 171.70
  C 201.07 174.33 195.47 178.44 190.64 182.69
  Q 186.54 186.31 181.53 188.58
  C 179.26 189.60 178.22 191.21 176.32 192.62
  Q 174.13 194.25 172.44 195.75
  C 169.84 198.06 166.33 199.53 164.30 201.95
  C 159.93 207.16 159.94 212.33 153.26 215.67
  C 148.02 218.30 143.15 222.19 138.84 226.10
  Q 138.45 226.45 138.41 226.98
  C 138.19 229.73 133.33 229.12 131.19 230.00"
/>
<path stroke="#657cd7" vector-effect="non-scaling-stroke" d="
  M 53.00 180.04
  Q 63.47 180.01 73.93 179.74
  C 80.22 179.59 84.71 177.87 84.51 171.00
  Q 84.38 166.72 84.32 156.81
  Q 84.31 156.12 85.00 156.12
  L 123.98 155.99
  Q 124.48 155.98 124.63 155.50
  C 125.51 152.53 125.29 148.41 125.59 146.41
  C 130.92 110.74 159.70 84.50 195.90 82.96
  Q 196.48 82.93 196.64 82.38
  L 197.04 81.00"
/>
<path stroke="#657cd7" vector-effect="non-scaling-stroke" d="
  M 133.36 154.76
  C 133.88 156.28 143.66 156.00 145.42 155.84
  Q 146.73 155.73 146.78 154.41
  C 147.84 127.50 168.30 106.70 195.28 105.06
  A 1.97 1.96 87.7 0 0 197.13 103.05
  L 196.89 92.60
  Q 196.88 92.06 196.40 91.82
  Q 196.23 91.73 196.04 91.75"
/>
<path stroke="#c2ceff" vector-effect="non-scaling-stroke" d="
  M 196.04 91.75
  Q 195.98 91.63 195.89 91.51
  Q 195.75 91.34 195.53 91.35
  C 160.92 93.26 133.58 119.64 133.36 154.76"
/>
<path stroke="#a2add7" vector-effect="non-scaling-stroke" d="
  M 196.04 91.75
  L 196.04 103.47
  Q 196.04 104.02 195.49 104.04
  C 167.72 105.16 146.18 126.02 145.53 154.06
  Q 145.51 154.65 144.93 154.65
  L 133.36 154.76"
/>
<path stroke="#657cd7" vector-effect="non-scaling-stroke" d="
  M 155.00 154.99
  Q 161.56 156.34 167.71 155.90
  Q 168.22 155.86 168.23 155.35
  C 168.46 139.86 180.18 126.98 196.09 126.73
  Q 196.58 126.72 196.67 126.24
  Q 197.77 119.98 196.19 113.61"
/>
<path stroke="#c2ceff" vector-effect="non-scaling-stroke" d="
  M 196.19 113.61
  C 172.79 113.39 155.74 132.12 155.00 154.99"
/>
<path stroke="#a2add7" vector-effect="non-scaling-stroke" d="
  M 196.19 113.61
  L 196.01 124.93
  Q 196.00 125.45 195.48 125.48
  C 179.56 126.22 167.66 138.30 166.96 154.23
  Q 166.94 154.76 166.41 154.77
  L 155.00 154.99"
/>
<path stroke="#657cd7" vector-effect="non-scaling-stroke" d="
  M 176.75 154.71
  C 176.73 156.16 186.29 155.93 187.30 155.86
  C 199.02 155.07 198.38 142.54 195.95 134.80"
/>
<path stroke="#c2ceff" vector-effect="non-scaling-stroke" d="
  M 195.95 134.80
  Q 178.91 136.89 176.32 153.64
  Q 176.25 154.05 176.50 154.37
  L 176.75 154.71"
/>
<path stroke="#a2add7" vector-effect="non-scaling-stroke" d="
  M 195.95 134.80
  C 196.15 141.87 197.25 150.91 192.02 153.69
  C 188.46 155.58 180.99 154.78 176.75 154.71"
/>
<path stroke="#657cd7" vector-effect="non-scaling-stroke" d="
  M 93.52 175.05
  Q 93.73 179.94 98.85 180.44
  C 101.96 180.75 104.87 181.05 108.05 181.04
  Q 135.15 180.91 162.25 180.67
  Q 165.24 180.64 166.29 179.59
  Q 170.41 175.45 165.82 170.55"
/>
<path stroke="#c2ceff" vector-effect="non-scaling-stroke" d="
  M 165.82 170.55
  Q 136.96 169.44 99.69 169.82
  Q 94.38 169.87 93.52 175.05"
/>
<path stroke="#a2add7" vector-effect="non-scaling-stroke" d="
  M 165.82 170.55
  Q 169.31 176.56 164.41 179.40
  A 2.52 2.46 29.3 0 1 163.15 179.74
  Q 130.89 179.77 98.57 179.73
  Q 94.53 179.72 93.52 175.05"
/>
<path stroke="#a2add7" vector-effect="non-scaling-stroke" d="
  M 32.11 177.07
  Q 34.81 178.92 38.25 178.94
  Q 59.48 179.10 74.87 178.84
  C 81.16 178.73 83.22 175.62 83.23 169.43
  Q 83.24 162.38 83.26 155.25
  Q 83.26 154.75 83.76 154.75
  L 123.26 154.75
  Q 123.81 154.75 123.82 154.21
  C 124.48 113.77 155.35 84.03 195.39 81.92
  Q 195.96 81.89 195.96 81.32
  Q 196.06 73.87 196.03 66.38
  C 196.00 59.72 194.38 55.00 186.99 55.00
  Q 127.51 55.04 68.00 54.94"
/>
<path stroke="#bbc7ff" vector-effect="non-scaling-stroke" d="
  M 69.75 94.46
  C 74.38 94.62 78.43 93.46 81.75 97.54"
/>
<path stroke="#a2add7" vector-effect="non-scaling-stroke" d="
  M 81.75 97.54
  Q 83.39 100.32 83.26 104.00
  Q 82.59 123.28 83.95 144.74"
/>
<path stroke="#bbc7ff" vector-effect="non-scaling-stroke" d="
  M 83.95 144.74
  L 112.85 144.84
  Q 113.37 144.84 113.46 144.33
  Q 121.90 94.41 168.41 77.29
  C 173.02 75.59 178.31 74.30 183.35 73.06
  Q 183.85 72.94 183.83 72.42
  L 183.72 69.10"
/>
<path stroke="#a2add7" vector-effect="non-scaling-stroke" d="
  M 183.72 69.10
  Q 183.90 68.58 183.71 67.99
  Q 183.54 67.47 182.98 67.47
  L 68.76 67.58
  Q 68.09 67.58 68.08 68.25
  L 67.78 94.09
  Q 67.77 94.63 68.31 94.68
  Q 69.06 94.75 69.75 94.46"
/>
<path stroke="#5e75d6" vector-effect="non-scaling-stroke" d="
  M 183.72 69.10
  Q 174.57 68.59 148.50 68.68
  Q 109.91 68.82 69.60 68.70
  Q 69.09 68.70 69.08 69.21
  L 68.78 92.62
  Q 68.77 93.09 69.12 93.41
  Q 69.62 93.87 69.75 94.46"
/>
<path stroke="#5e75d6" vector-effect="non-scaling-stroke" d="
  M 83.95 144.74
  Q 84.77 134.77 84.75 127.50
  Q 84.73 117.42 84.18 101.45
  Q 84.09 98.63 81.75 97.54"
/>
<path stroke="#bbc7ff" vector-effect="non-scaling-stroke" d="
  M 37.90 171.25
  L 74.81 171.24
  A 0.93 0.92 -0.3 0 0 75.74 170.31
  L 75.46 120.25"
/>
<path stroke="#a2add7" vector-effect="non-scaling-stroke" d="
  M 75.46 120.25
  L 75.45 102.68
  Q 75.45 102.02 74.79 102.03
  L 38.50 102.27
  Q 37.43 102.28 37.42 103.34
  Q 37.06 137.76 37.90 171.25"
/>
<path stroke="#5e75d6" vector-effect="non-scaling-stroke" d="
  M 75.46 120.25
  C 74.29 114.84 75.73 109.19 74.52 103.87
  Q 74.39 103.29 73.79 103.29
  L 38.97 103.52
  A 0.38 0.38 0.0 0 0 38.59 103.90
  L 38.61 169.90
  Q 38.61 170.19 38.82 170.41
  Q 39.29 170.89 37.90 171.25"
/>
<path stroke="#5e75d6" vector-effect="non-scaling-stroke" d="
  M 51.89 161.29
  C 52.91 164.30 55.91 164.71 58.36 163.07
  Q 62.36 160.42 57.59 156.36"
/>
<path stroke="#bbc7ff" vector-effect="non-scaling-stroke" d="
  M 57.59 156.36
  Q 51.35 154.69 51.89 161.29"
/>
<path stroke="#a2add7" vector-effect="non-scaling-stroke" d="
  M 57.59 156.36
  C 60.80 161.28 55.67 165.09 51.89 161.29"
/>
</g>
<path fill="#768ffe" d="
  M 0.00 0.00
  L 230.00 0.00
  L 230.00 45.81
  Q 228.06 44.31 226.18 45.17
  Q 220.26 47.87 214.05 52.34
  C 208.81 56.11 206.65 62.28 199.74 63.22
  Q 199.21 63.30 199.09 63.83
  L 198.41 66.96
  Q 198.36 67.21 198.10 67.24
  Q 197.96 67.25 197.78 67.24
  Q 197.29 67.20 197.28 67.70
  L 197.04 81.00
  Q 196.98 73.95 196.99 66.92
  C 197.00 56.94 193.59 54.60 183.63 54.53
  Q 132.97 54.20 82.31 54.12
  Q 73.61 54.11 68.00 54.94
  C 57.36 55.35 55.41 57.29 55.31 67.77
  Q 55.19 80.85 54.93 94.01
  Q 54.92 94.53 54.41 94.53
  Q 46.44 94.41 38.45 94.60
  C 32.62 94.73 29.68 97.60 29.74 103.50
  Q 29.87 117.82 29.76 169.50
  Q 29.75 174.13 32.11 177.07
  C 35.43 181.09 48.06 179.99 53.00 180.04
  L 49.03 180.42
  Q 48.50 180.47 48.77 180.94
  Q 49.21 181.72 48.32 182.08
  Q 47.78 182.29 47.57 182.82
  Q 46.77 184.87 47.98 186.64
  A 2.41 2.40 50.8 0 1 47.67 189.73
  C 45.13 192.17 44.57 195.78 42.11 198.03
  Q 39.52 200.38 35.77 202.77
  C 32.00 205.17 28.68 208.63 25.69 212.45
  Q 23.34 215.44 20.04 217.23
  C 14.90 219.99 13.28 224.72 16.44 230.00
  L 0.00 230.00
  L 0.00 0.00
  Z"
/>
<path fill="#859cff" d="
  M 230.00 45.81
  L 230.00 154.56
  L 229.23 156.83
  Q 229.08 157.26 228.64 157.36
  Q 225.51 158.10 223.25 161.26
  Q 220.72 164.79 216.06 166.25
  C 212.77 167.29 211.33 170.40 207.93 171.70
  C 201.07 174.33 195.47 178.44 190.64 182.69
  Q 186.54 186.31 181.53 188.58
  C 179.26 189.60 178.22 191.21 176.32 192.62
  Q 174.13 194.25 172.44 195.75
  C 169.84 198.06 166.33 199.53 164.30 201.95
  C 159.93 207.16 159.94 212.33 153.26 215.67
  C 148.02 218.30 143.15 222.19 138.84 226.10
  Q 138.45 226.45 138.41 226.98
  C 138.19 229.73 133.33 229.12 131.19 230.00
  L 16.44 230.00
  C 13.28 224.72 14.90 219.99 20.04 217.23
  Q 23.34 215.44 25.69 212.45
  C 28.68 208.63 32.00 205.17 35.77 202.77
  Q 39.52 200.38 42.11 198.03
  C 44.57 195.78 45.13 192.17 47.67 189.73
  A 2.41 2.40 50.8 0 0 47.98 186.64
  Q 46.77 184.87 47.57 182.82
  Q 47.78 182.29 48.32 182.08
  Q 49.21 181.72 48.77 180.94
  Q 48.50 180.47 49.03 180.42
  L 53.00 180.04
  Q 63.47 180.01 73.93 179.74
  C 80.22 179.59 84.71 177.87 84.51 171.00
  Q 84.38 166.72 84.32 156.81
  Q 84.31 156.12 85.00 156.12
  L 123.98 155.99
  Q 124.48 155.98 124.63 155.50
  C 125.51 152.53 125.29 148.41 125.59 146.41
  C 130.92 110.74 159.70 84.50 195.90 82.96
  Q 196.48 82.93 196.64 82.38
  L 197.04 81.00
  L 197.28 67.70
  Q 197.29 67.20 197.78 67.24
  Q 197.96 67.25 198.10 67.24
  Q 198.36 67.21 198.41 66.96
  L 199.09 63.83
  Q 199.21 63.30 199.74 63.22
  C 206.65 62.28 208.81 56.11 214.05 52.34
  Q 220.26 47.87 226.18 45.17
  Q 228.06 44.31 230.00 45.81
  Z
  M 133.36 154.76
  C 133.88 156.28 143.66 156.00 145.42 155.84
  Q 146.73 155.73 146.78 154.41
  C 147.84 127.50 168.30 106.70 195.28 105.06
  A 1.97 1.96 87.7 0 0 197.13 103.05
  L 196.89 92.60
  Q 196.88 92.06 196.40 91.82
  Q 196.23 91.73 196.04 91.75
  Q 195.98 91.63 195.89 91.51
  Q 195.75 91.34 195.53 91.35
  C 160.92 93.26 133.58 119.64 133.36 154.76
  Z
  M 155.00 154.99
  Q 161.56 156.34 167.71 155.90
  Q 168.22 155.86 168.23 155.35
  C 168.46 139.86 180.18 126.98 196.09 126.73
  Q 196.58 126.72 196.67 126.24
  Q 197.77 119.98 196.19 113.61
  C 172.79 113.39 155.74 132.12 155.00 154.99
  Z
  M 176.75 154.71
  C 176.73 156.16 186.29 155.93 187.30 155.86
  C 199.02 155.07 198.38 142.54 195.95 134.80
  Q 178.91 136.89 176.32 153.64
  Q 176.25 154.05 176.50 154.37
  L 176.75 154.71
  Z
  M 93.52 175.05
  Q 93.73 179.94 98.85 180.44
  C 101.96 180.75 104.87 181.05 108.05 181.04
  Q 135.15 180.91 162.25 180.67
  Q 165.24 180.64 166.29 179.59
  Q 170.41 175.45 165.82 170.55
  Q 136.96 169.44 99.69 169.82
  Q 94.38 169.87 93.52 175.05
  Z"
/>
<path fill="#455bae" d="
  M 197.04 81.00
  L 196.64 82.38
  Q 196.48 82.93 195.90 82.96
  C 159.70 84.50 130.92 110.74 125.59 146.41
  C 125.29 148.41 125.51 152.53 124.63 155.50
  Q 124.48 155.98 123.98 155.99
  L 85.00 156.12
  Q 84.31 156.12 84.32 156.81
  Q 84.38 166.72 84.51 171.00
  C 84.71 177.87 80.22 179.59 73.93 179.74
  Q 63.47 180.01 53.00 180.04
  C 48.06 179.99 35.43 181.09 32.11 177.07
  Q 34.81 178.92 38.25 178.94
  Q 59.48 179.10 74.87 178.84
  C 81.16 178.73 83.22 175.62 83.23 169.43
  Q 83.24 162.38 83.26 155.25
  Q 83.26 154.75 83.76 154.75
  L 123.26 154.75
  Q 123.81 154.75 123.82 154.21
  C 124.48 113.77 155.35 84.03 195.39 81.92
  Q 195.96 81.89 195.96 81.32
  Q 196.06 73.87 196.03 66.38
  C 196.00 59.72 194.38 55.00 186.99 55.00
  Q 127.51 55.04 68.00 54.94
  Q 73.61 54.11 82.31 54.12
  Q 132.97 54.20 183.63 54.53
  C 193.59 54.60 197.00 56.94 196.99 66.92
  Q 196.98 73.95 197.04 81.00
  Z"
/>
<path fill="#ffffff" d="
  M 68.00 54.94
  Q 127.51 55.04 186.99 55.00
  C 194.38 55.00 196.00 59.72 196.03 66.38
  Q 196.06 73.87 195.96 81.32
  Q 195.96 81.89 195.39 81.92
  C 155.35 84.03 124.48 113.77 123.82 154.21
  Q 123.81 154.75 123.26 154.75
  L 83.76 154.75
  Q 83.26 154.75 83.26 155.25
  Q 83.24 162.38 83.23 169.43
  C 83.22 175.62 81.16 178.73 74.87 178.84
  Q 59.48 179.10 38.25 178.94
  Q 34.81 178.92 32.11 177.07
  Q 29.75 174.13 29.76 169.50
  Q 29.87 117.82 29.74 103.50
  C 29.68 97.60 32.62 94.73 38.45 94.60
  Q 46.44 94.41 54.41 94.53
  Q 54.92 94.53 54.93 94.01
  Q 55.19 80.85 55.31 67.77
  C 55.41 57.29 57.36 55.35 68.00 54.94
  Z
  M 69.75 94.46
  C 74.38 94.62 78.43 93.46 81.75 97.54
  Q 83.39 100.32 83.26 104.00
  Q 82.59 123.28 83.95 144.74
  L 112.85 144.84
  Q 113.37 144.84 113.46 144.33
  Q 121.90 94.41 168.41 77.29
  C 173.02 75.59 178.31 74.30 183.35 73.06
  Q 183.85 72.94 183.83 72.42
  L 183.72 69.10
  Q 183.90 68.58 183.71 67.99
  Q 183.54 67.47 182.98 67.47
  L 68.76 67.58
  Q 68.09 67.58 68.08 68.25
  L 67.78 94.09
  Q 67.77 94.63 68.31 94.68
  Q 69.06 94.75 69.75 94.46
  Z
  M 37.90 171.25
  L 74.81 171.24
  A 0.93 0.92 -0.3 0 0 75.74 170.31
  L 75.46 120.25
  L 75.45 102.68
  Q 75.45 102.02 74.79 102.03
  L 38.50 102.27
  Q 37.43 102.28 37.42 103.34
  Q 37.06 137.76 37.90 171.25
  Z"
/>
<path fill="#455bae" d="
  M 183.72 69.10
  Q 174.57 68.59 148.50 68.68
  Q 109.91 68.82 69.60 68.70
  Q 69.09 68.70 69.08 69.21
  L 68.78 92.62
  Q 68.77 93.09 69.12 93.41
  Q 69.62 93.87 69.75 94.46
  Q 69.06 94.75 68.31 94.68
  Q 67.77 94.63 67.78 94.09
  L 68.08 68.25
  Q 68.09 67.58 68.76 67.58
  L 182.98 67.47
  Q 183.54 67.47 183.71 67.99
  Q 183.90 68.58 183.72 69.10
  Z"
/>
<path fill="#768ffe" d="
  M 183.72 69.10
  L 183.83 72.42
  Q 183.85 72.94 183.35 73.06
  C 178.31 74.30 173.02 75.59 168.41 77.29
  Q 121.90 94.41 113.46 144.33
  Q 113.37 144.84 112.85 144.84
  L 83.95 144.74
  Q 84.77 134.77 84.75 127.50
  Q 84.73 117.42 84.18 101.45
  Q 84.09 98.63 81.75 97.54
  C 78.43 93.46 74.38 94.62 69.75 94.46
  Q 69.62 93.87 69.12 93.41
  Q 68.77 93.09 68.78 92.62
  L 69.08 69.21
  Q 69.09 68.70 69.60 68.70
  Q 109.91 68.82 148.50 68.68
  Q 174.57 68.59 183.72 69.10
  Z"
/>
<path fill="#ffffff" d="
  M 196.04 91.75
  L 196.04 103.47
  Q 196.04 104.02 195.49 104.04
  C 167.72 105.16 146.18 126.02 145.53 154.06
  Q 145.51 154.65 144.93 154.65
  L 133.36 154.76
  C 133.58 119.64 160.92 93.26 195.53 91.35
  Q 195.75 91.34 195.89 91.51
  Q 195.98 91.63 196.04 91.75
  Z"
/>
<path fill="#455bae" d="
  M 196.04 91.75
  Q 196.23 91.73 196.40 91.82
  Q 196.88 92.06 196.89 92.60
  L 197.13 103.05
  A 1.97 1.96 87.7 0 1 195.28 105.06
  C 168.30 106.70 147.84 127.50 146.78 154.41
  Q 146.73 155.73 145.42 155.84
  C 143.66 156.00 133.88 156.28 133.36 154.76
  L 144.93 154.65
  Q 145.51 154.65 145.53 154.06
  C 146.18 126.02 167.72 105.16 195.49 104.04
  Q 196.04 104.02 196.04 103.47
  L 196.04 91.75
  Z"
/>
<path fill="#455bae" d="
  M 81.75 97.54
  Q 84.09 98.63 84.18 101.45
  Q 84.73 117.42 84.75 127.50
  Q 84.77 134.77 83.95 144.74
  Q 82.59 123.28 83.26 104.00
  Q 83.39 100.32 81.75 97.54
  Z"
/>
<path fill="#455bae" d="
  M 75.46 120.25
  C 74.29 114.84 75.73 109.19 74.52 103.87
  Q 74.39 103.29 73.79 103.29
  L 38.97 103.52
  A 0.38 0.38 0.0 0 0 38.59 103.90
  L 38.61 169.90
  Q 38.61 170.19 38.82 170.41
  Q 39.29 170.89 37.90 171.25
  Q 37.06 137.76 37.42 103.34
  Q 37.43 102.28 38.50 102.27
  L 74.79 102.03
  Q 75.45 102.02 75.45 102.68
  L 75.46 120.25
  Z"
/>
<path fill="#768ffe" d="
  M 75.46 120.25
  L 75.74 170.31
  A 0.93 0.92 -0.3 0 1 74.81 171.24
  L 37.90 171.25
  Q 39.29 170.89 38.82 170.41
  Q 38.61 170.19 38.61 169.90
  L 38.59 103.90
  A 0.38 0.38 0.0 0 1 38.97 103.52
  L 73.79 103.29
  Q 74.39 103.29 74.52 103.87
  C 75.73 109.19 74.29 114.84 75.46 120.25
  Z
  M 51.89 161.29
  C 52.91 164.30 55.91 164.71 58.36 163.07
  Q 62.36 160.42 57.59 156.36
  Q 51.35 154.69 51.89 161.29
  Z"
/>
<path fill="#ffffff" d="
  M 196.19 113.61
  L 196.01 124.93
  Q 196.00 125.45 195.48 125.48
  C 179.56 126.22 167.66 138.30 166.96 154.23
  Q 166.94 154.76 166.41 154.77
  L 155.00 154.99
  C 155.74 132.12 172.79 113.39 196.19 113.61
  Z"
/>
<path fill="#455bae" d="
  M 196.19 113.61
  Q 197.77 119.98 196.67 126.24
  Q 196.58 126.72 196.09 126.73
  C 180.18 126.98 168.46 139.86 168.23 155.35
  Q 168.22 155.86 167.71 155.90
  Q 161.56 156.34 155.00 154.99
  L 166.41 154.77
  Q 166.94 154.76 166.96 154.23
  C 167.66 138.30 179.56 126.22 195.48 125.48
  Q 196.00 125.45 196.01 124.93
  L 196.19 113.61
  Z"
/>
<path fill="#ffffff" d="
  M 195.95 134.80
  C 196.15 141.87 197.25 150.91 192.02 153.69
  C 188.46 155.58 180.99 154.78 176.75 154.71
  L 176.50 154.37
  Q 176.25 154.05 176.32 153.64
  Q 178.91 136.89 195.95 134.80
  Z"
/>
<path fill="#455bae" d="
  M 195.95 134.80
  C 198.38 142.54 199.02 155.07 187.30 155.86
  C 186.29 155.93 176.73 156.16 176.75 154.71
  C 180.99 154.78 188.46 155.58 192.02 153.69
  C 197.25 150.91 196.15 141.87 195.95 134.80
  Z"
/>
<path fill="#90a5ff" d="
  M 230.00 154.56
  L 230.00 230.00
  L 131.19 230.00
  C 133.33 229.12 138.19 229.73 138.41 226.98
  Q 138.45 226.45 138.84 226.10
  C 143.15 222.19 148.02 218.30 153.26 215.67
  C 159.94 212.33 159.93 207.16 164.30 201.95
  C 166.33 199.53 169.84 198.06 172.44 195.75
  Q 174.13 194.25 176.32 192.62
  C 178.22 191.21 179.26 189.60 181.53 188.58
  Q 186.54 186.31 190.64 182.69
  C 195.47 178.44 201.07 174.33 207.93 171.70
  C 211.33 170.40 212.77 167.29 216.06 166.25
  Q 220.72 164.79 223.25 161.26
  Q 225.51 158.10 228.64 157.36
  Q 229.08 157.26 229.23 156.83
  L 230.00 154.56
  Z"
/>
<path fill="#ffffff" d="
  M 57.59 156.36
  C 60.80 161.28 55.67 165.09 51.89 161.29
  Q 51.35 154.69 57.59 156.36
  Z"
/>
<path fill="#455bae" d="
  M 57.59 156.36
  Q 62.36 160.42 58.36 163.07
  C 55.91 164.71 52.91 164.30 51.89 161.29
  C 55.67 165.09 60.80 161.28 57.59 156.36
  Z"
/>
<path fill="#ffffff" d="
  M 165.82 170.55
  Q 169.31 176.56 164.41 179.40
  A 2.52 2.46 29.3 0 1 163.15 179.74
  Q 130.89 179.77 98.57 179.73
  Q 94.53 179.72 93.52 175.05
  Q 94.38 169.87 99.69 169.82
  Q 136.96 169.44 165.82 170.55
  Z"
/>
<path fill="#455bae" d="
  M 165.82 170.55
  Q 170.41 175.45 166.29 179.59
  Q 165.24 180.64 162.25 180.67
  Q 135.15 180.91 108.05 181.04
  C 104.87 181.05 101.96 180.75 98.85 180.44
  Q 93.73 179.94 93.52 175.05
  Q 94.53 179.72 98.57 179.73
  Q 130.89 179.77 163.15 179.74
  A 2.52 2.46 29.3 0 0 164.41 179.40
  Q 169.31 176.56 165.82 170.55
  Z"
/>
</svg>
